Coordinates
version=1
nRows=11
nColumns=63
inDegrees=yes

Units are S.I. units (second, meters, Newtons, ...)
If the header above contains a line with 'inDegrees', this indicates whether rotational values are in degrees (yes) or radians (no).

endheader
time	pelvis_tilt	pelvis_list	pelvis_rotation	pelvis_tx	pelvis_ty	pelvis_tz	hip_flexion_r	hip_adduction_r	hip_rotation_r	knee_angle_r	knee_angle_r_beta	ankle_angle_r	subtalar_angle_r	mtp_angle_r	hip_flexion_l	hip_adduction_l	hip_rotation_l	knee_angle_l	knee_angle_l_beta	ankle_angle_l	subtalar_angle_l	mtp_angle_l	L5_S1_Flex_Ext	L5_S1_Lat_Bending	L5_S1_axial_rotation	L4_L5_Flex_Ext	L4_L5_Lat_Bending	L4_L5_axial_rotation	L3_L4_Flex_Ext	L3_L4_Lat_Bending	L3_L4_axial_rotation	L2_L3_Flex_Ext	L2_L3_Lat_Bending	L2_L3_axial_rotation	L1_L2_Flex_Ext	L1_L2_Lat_Bending	L1_L2_axial_rotation	L1_T12_Flex_Ext	L1_T12_Lat_Bending	L1_T12_axial_rotation	Abs_r3	Abs_r2	Abs_r1	Abs_t1	Abs_t2	neck_flexion	neck_bending	neck_rotation	arm_flex_r	arm_add_r	arm_rot_r	elbow_flex_r	pro_sup_r	wrist_flex_r	wrist_dev_r	arm_flex_l	arm_add_l	arm_rot_l	elbow_flex_l	pro_sup_l	wrist_flex_l	wrist_dev_l
3.652174	4.070823	-2.302887	91.336784	0.201919	0.943024	0.476513	-6.697055	-1.136959	-2.397054	7.851584	0.137036	28.894925	8.509666	0.000000	-8.654912	-2.961622	3.772501	0.792216	0.013827	24.621920	7.091858	0.000000	0.012509	-0.037917	-0.869826	0.023231	-0.050430	-0.924190	0.020552	-0.092192	-0.924190	0.014297	-0.092192	-0.761097	0.011616	-0.077321	-0.706733	0.007148	-0.058734	-0.652369	0.089353	-0.428928	-4.837709	0.000000	0.000000	18.292453	6.957019	4.780149	15.667368	-0.931691	97.856654	19.034101	39.754152	9.660591	-0.449092	16.874116	-11.148854	56.576568	44.124405	89.111030	4.784528	5.979772
3.673913	4.216548	-2.278124	91.388466	0.201339	0.942656	0.475589	-6.814297	-0.996817	-2.563528	7.801820	0.136167	28.766758	8.506788	0.000000	-8.755636	-3.076586	3.944472	0.767314	0.013392	24.722168	6.896690	0.000000	0.015805	-0.012785	-0.796737	0.029351	-0.017005	-0.846533	0.025966	-0.031087	-0.846533	0.018063	-0.031087	-0.697144	0.014676	-0.026072	-0.647348	0.009031	-0.019805	-0.597552	0.112892	-0.144632	-4.431210	0.000000	0.000000	18.768465	6.798966	4.453900	14.066582	-2.265192	85.331276	23.442979	48.978708	7.895931	3.980862	17.046986	-10.789244	57.275927	43.893117	88.704767	4.576141	5.711417
3.695652	4.361237	-2.274881	91.404095	0.200760	0.942304	0.474786	-6.867926	-0.868413	-2.755694	7.809819	0.136307	28.639081	8.567098	0.000000	-8.834378	-3.183065	4.097981	0.752476	0.013133	24.801070	6.661260	0.000000	0.019653	0.013285	-0.718744	0.036497	0.017669	-0.763665	0.032287	0.032301	-0.763665	0.022461	0.032301	-0.628901	0.018249	0.027091	-0.583979	0.011230	0.020578	-0.539058	0.140377	0.150282	-3.997436	0.000000	0.000000	19.210747	6.627307	4.150201	12.504680	-3.600008	73.091105	27.772796	58.096657	6.216996	8.359987	17.244389	-10.411239	58.047212	43.650311	88.489190	4.346434	5.595956
3.717391	4.494036	-2.288683	91.379574	0.200228	0.941971	0.474127	-6.857080	-0.766348	-3.008321	7.883005	0.137584	28.551956	8.753127	0.000000	-8.893443	-3.271624	4.212242	0.741182	0.012936	24.867921	6.403529	0.000000	0.023864	0.038527	-0.635281	0.044319	0.051241	-0.674986	0.039207	0.093675	-0.674986	0.027275	0.093675	-0.555870	0.022160	0.078565	-0.516165	0.013636	0.059679	-0.476460	0.170461	0.435827	-3.533240	0.000000	0.000000	19.619027	6.455166	3.880359	10.998932	-4.873421	61.326807	31.900959	66.873394	4.588547	12.528434	17.497590	-10.038902	58.960651	43.382831	88.450637	4.171368	5.544071
3.739130	4.626829	-2.317757	91.269015	0.199816	0.941642	0.473611	-6.776855	-0.677606	-3.209495	8.024634	0.140056	28.530630	9.002087	0.000000	-8.940615	-3.348983	4.207850	0.730298	0.012746	24.942869	6.135051	0.000000	0.029186	0.064358	-0.547147	0.054201	0.085596	-0.581344	0.047950	0.156480	-0.581344	0.033357	0.156480	-0.478754	0.027102	0.131239	-0.444557	0.016677	0.099691	-0.410360	0.208473	0.728032	-3.043069	0.000000	0.000000	19.979336	6.262964	3.660528	9.611339	-6.047679	50.511613	35.709992	74.921601	2.972020	16.337890	17.768050	-9.680528	59.909561	43.122705	88.447352	4.025064	5.600304
3.760870	4.734189	-2.348127	91.154866	0.199473	0.941362	0.473275	-6.665269	-0.618227	-3.450074	8.200433	0.143125	28.555125	9.294794	0.000000	-8.973610	-3.403301	4.134724	0.726977	0.012688	25.003011	5.922486	0.000000	0.032954	0.086191	-0.455105	0.061199	0.114634	-0.483549	0.054141	0.209564	-0.483549	0.037663	0.209564	-0.398216	0.030601	0.175760	-0.369772	0.018830	0.133510	-0.341328	0.235389	0.975008	-2.531155	0.000000	0.000000	20.283058	6.073112	3.412363	8.337853	-7.073480	40.706516	39.099766	81.996416	1.256000	19.660933	18.156734	-9.344943	61.110738	42.799050	88.475910	3.838703	5.478772
3.782609	4.825109	-2.375089	91.016206	0.199241	0.941142	0.473109	-6.526504	-0.580831	-3.719849	8.412291	0.146822	28.631776	9.675115	0.000000	-8.999712	-3.442979	3.965938	0.731348	0.012764	25.055574	5.784586	0.000000	0.035550	0.104708	-0.363552	0.066019	0.139262	-0.386274	0.058404	0.254587	-0.386274	0.040630	0.254587	-0.318108	0.033011	0.213521	-0.295386	0.020313	0.162193	-0.272664	0.253927	1.184479	-2.021968	0.000000	0.000000	20.488751	5.898372	3.149761	7.258792	-7.917933	32.528732	41.892717	87.690483	-0.347471	22.289795	18.622930	-9.058133	62.456963	42.476383	88.506542	3.555939	5.293333
3.804348	4.897584	-2.397977	90.841414	0.199136	0.940986	0.473083	-6.375191	-0.562938	-3.918683	8.635846	0.150724	28.736709	10.037757	0.000000	-9.021370	-3.463101	3.708145	0.743484	0.012976	25.095073	5.715704	0.000000	0.036922	0.119851	-0.271521	0.068567	0.159401	-0.288492	0.060658	0.291405	-0.288492	0.042198	0.291405	-0.237581	0.034285	0.244399	-0.220611	0.021097	0.185648	-0.203641	0.263727	1.355773	-1.510121	0.000000	0.000000	20.606347	5.771967	2.923123	6.397953	-8.532918	26.378914	43.988379	91.753058	-1.721617	24.214764	19.117554	-8.810168	63.813122	42.160338	88.539042	3.252776	5.041243
3.826087	4.944723	-2.415941	90.662005	0.199118	0.940898	0.473179	-6.233013	-0.567653	-4.065056	8.837292	0.154240	28.852750	10.388815	0.000000	-9.034511	-3.462146	3.364763	0.763486	0.013325	25.126384	5.774666	0.000000	0.037706	0.130405	-0.187242	0.070025	0.173439	-0.198945	0.061948	0.317067	-0.198945	0.043095	0.317067	-0.163837	0.035014	0.265923	-0.152134	0.021545	0.201998	-0.140432	0.269333	1.475171	-1.041385	0.000000	0.000000	20.645170	5.690340	2.695905	5.807634	-8.881717	22.660848	45.240557	93.832560	-2.763591	25.343747	19.607175	-8.601110	65.100210	41.844670	88.563842	2.939354	4.743240
3.847826	4.948248	-2.418618	90.489843	0.199189	0.940892	0.473373	-6.125615	-0.610612	-4.150086	8.993592	0.156968	28.966017	10.716957	0.000000	-9.050898	-3.423708	2.962225	0.785136	0.013703	25.138813	5.946128	0.000000	0.037262	0.134264	-0.120062	0.069199	0.178571	-0.127566	0.061218	0.326450	-0.127566	0.042587	0.326450	-0.105054	0.034602	0.273791	-0.097550	0.021292	0.207975	-0.090046	0.266159	1.518823	-0.667748	0.000000	0.000000	20.602812	5.697747	2.544633	5.553972	-8.908232	21.795434	45.491900	93.531606	-3.334727	25.620172	20.040316	-8.447035	66.189101	41.557804	88.542267	2.638775	4.457336
3.869565	4.896228	-2.396810	90.318482	0.199380	0.940991	0.473666	-6.065074	-0.702330	-4.165006	9.098402	0.158797	29.064718	11.015926	0.000000	-9.081321	-3.334482	2.497817	0.806396	0.014074	25.128416	6.203020	0.000000	0.034935	0.129648	-0.071132	0.064878	0.172432	-0.075578	0.057395	0.315226	-0.075578	0.039927	0.315226	-0.062240	0.032441	0.264378	-0.057795	0.019962	0.200825	-0.053349	0.249539	1.466603	-0.395614	0.000000	0.000000	20.474022	5.808445	2.476399	5.694147	-8.569135	24.078782	44.589577	90.469622	-3.311998	24.957328	20.414310	-8.359455	67.068942	41.299215	88.488315	2.328797	4.203139
